<?xml version="1.0" standalone="no"?>
<!DOCTYPE svg PUBLIC "-//W3C//DTD SVG 20010904//EN"
 "http://www.w3.org/TR/2001/REC-SVG-20010904/DTD/svg10.dtd">
<svg version="1.0" xmlns="http://www.w3.org/2000/svg"
 width="402.000000pt" height="192.000000pt" viewBox="0 0 402.000000 192.000000"
 preserveAspectRatio="xMidYMid meet">

<g transform="translate(0.000000,192.000000) scale(0.100000,-0.100000)"
fill="#000000" stroke="none">
<path d="M555 1166 c-51 -19 -92 -67 -110 -130 -41 -137 10 -208 136 -191 28
4 52 12 54 19 2 6 6 23 9 39 9 37 -14 36 -42 -3 -28 -37 -75 -42 -93 -9 -13
25 -6 97 17 161 30 86 101 127 126 73 15 -34 34 -31 42 7 3 17 4 33 2 35 -12
12 -106 11 -141 -1z"/>
<path d="M740 1172 c0 -4 5 -13 10 -18 15 -15 -43 -274 -64 -290 -9 -6 -16
-14 -16 -18 0 -9 228 -8 234 2 2 4 7 24 11 45 6 30 4 37 -9 37 -9 0 -16 -4
-16 -8 0 -5 -9 -18 -20 -30 -27 -29 -104 -32 -96 -4 6 21 12 49 20 85 5 21 12
27 32 27 18 0 28 -7 31 -20 9 -33 26 -18 39 33 10 38 9 47 -1 47 -7 0 -18 -7
-25 -15 -14 -16 -60 -21 -60 -5 0 5 5 32 11 60 l11 51 41 -3 c32 -2 44 -8 52
-25 5 -13 15 -23 21 -23 10 0 24 42 24 71 0 5 -52 9 -115 9 -63 0 -115 -4
-115 -8z"/>
<path d="M1030 1172 c0 -4 5 -13 10 -18 15 -15 -42 -269 -66 -295 -18 -19 -17
-20 96 -17 l114 3 12 48 c10 39 10 47 -2 47 -7 0 -20 -13 -28 -29 -17 -32 -34
-41 -77 -41 -24 0 -29 4 -25 18 3 9 16 68 30 130 13 63 31 121 40 131 25 28
20 31 -44 31 -33 0 -60 -4 -60 -8z"/>
<path d="M1290 1172 c0 -4 5 -13 10 -18 15 -15 -43 -274 -64 -290 -9 -6 -16
-14 -16 -18 0 -9 228 -8 234 2 2 4 7 24 11 45 6 30 4 37 -9 37 -9 0 -16 -4
-16 -8 0 -5 -9 -18 -20 -30 -27 -29 -104 -32 -96 -4 6 21 12 49 20 85 5 21 12
27 32 27 18 0 28 -7 31 -20 9 -33 26 -18 39 33 10 38 9 47 -1 47 -7 0 -18 -7
-25 -15 -14 -16 -60 -21 -60 -5 0 5 5 32 11 60 l11 51 41 -3 c32 -2 44 -8 52
-25 5 -13 15 -23 21 -23 10 0 24 42 24 71 0 5 -52 9 -115 9 -63 0 -115 -4
-115 -8z"/>
<path d="M1570 1172 c0 -4 5 -13 10 -18 15 -15 -43 -274 -64 -290 -9 -6 -16
-14 -16 -18 0 -9 228 -8 234 2 2 4 7 24 11 45 6 30 4 37 -9 37 -9 0 -16 -4
-16 -8 0 -5 -9 -18 -20 -30 -27 -29 -104 -32 -96 -4 6 21 12 49 20 85 5 21 12
27 32 27 18 0 28 -7 31 -20 9 -33 26 -18 39 33 10 38 9 47 -1 47 -7 0 -18 -7
-25 -15 -14 -16 -60 -21 -60 -5 0 5 5 32 11 60 l11 51 41 -3 c32 -2 44 -8 52
-25 5 -13 15 -23 21 -23 10 0 24 42 24 71 0 5 -52 9 -115 9 -63 0 -115 -4
-115 -8z"/>
<path d="M1850 1173 c0 -5 5 -14 10 -19 15 -15 -43 -274 -64 -290 -26 -18 -19
-24 29 -24 45 0 54 7 34 27 -8 8 -6 36 9 105 12 51 23 102 25 113 2 11 23 -40
47 -112 43 -128 45 -133 72 -133 15 0 28 3 28 6 0 31 65 293 76 305 22 25 17
29 -31 29 -46 0 -54 -7 -33 -28 9 -9 7 -34 -7 -107 -11 -52 -21 -95 -24 -95
-4 0 -22 51 -41 113 l-35 112 -48 3 c-26 2 -47 -1 -47 -5z"/>
<path d="M2290 1172 c0 -4 5 -13 10 -18 15 -15 -42 -269 -66 -295 -17 -19 -16
-19 49 -19 38 0 67 4 67 10 0 6 -4 10 -10 10 -13 0 -13 55 1 103 8 30 14 37
35 37 17 0 28 -7 31 -20 3 -11 9 -20 14 -20 9 0 29 64 29 93 0 23 -17 22 -30
-3 -11 -20 -60 -29 -60 -10 0 5 5 32 11 60 l11 51 41 -3 c35 -2 43 -7 45 -25
5 -32 30 -29 38 5 3 15 7 33 10 40 2 9 -24 12 -111 12 -63 0 -115 -4 -115 -8z"/>
<path d="M2634 1161 c-51 -23 -80 -59 -99 -124 -31 -104 -12 -168 56 -188 58
-18 124 1 166 45 32 34 63 116 63 166 0 102 -84 147 -186 101z m107 -38 c29
-77 -45 -253 -107 -253 -47 0 -55 78 -18 182 30 87 103 128 125 71z"/>
<path d="M2974 1161 c-51 -23 -80 -59 -99 -124 -31 -104 -12 -168 56 -188 58
-18 124 1 166 45 32 34 63 116 63 166 0 102 -84 147 -186 101z m107 -38 c29
-77 -45 -253 -107 -253 -47 0 -55 78 -18 182 30 87 103 128 125 71z"/>
<path d="M3230 1172 c0 -4 5 -13 10 -18 15 -15 -42 -269 -66 -295 -17 -19 -16
-19 62 -19 43 0 97 5 119 11 59 16 110 75 126 142 21 97 -5 156 -78 176 -45
13 -173 15 -173 3z m160 -42 c44 -44 16 -190 -45 -238 -35 -28 -89 -30 -81 -4
6 18 56 250 56 258 0 13 53 1 70 -16z"/>
<path d="M3610 1163 c-41 -21 -65 -64 -55 -101 3 -14 26 -44 51 -66 35 -31 44
-46 44 -72 0 -38 -19 -57 -57 -52 -19 2 -32 12 -41 31 -7 15 -19 27 -26 27
-11 0 -26 -40 -26 -71 0 -14 105 -21 148 -10 45 13 68 38 78 88 5 27 0 38 -50
92 -31 33 -56 64 -56 69 0 18 33 52 50 52 32 0 50 -11 50 -31 0 -12 7 -19 19
-19 13 0 20 9 24 33 2 17 3 34 2 35 -2 2 -30 6 -62 9 -44 3 -67 0 -93 -14z"/>
</g>
</svg>
